# xmcd
#
# Track frame offsets:
#	150
#	29212
#	57697
#	67222
#	98287
#	114308
#	145749
#	154816
#	155176
#	189091
#	214789
#
# Disc length: 3257 seconds
#
# Revision: 1
# Processed by: cddbd v1.5.2PL0 Copyright (c) Steve Scherf et al.
# Submitted via: audiograbber 1.83.01
#
DISCID=9f0cb70b
DTITLE=Grateful Dead - 70-10-23A  McDonough Arena, Georgetown Uni, Washington D
DTITLE=C
DYEAR=1900
DGENRE=
TTITLE0=Truckin'
TTITLE1=The Other One
TTITLE2=Not Fade Away
TTITLE3=Going Down The Road Feeling Bad
TTITLE4=Not Fade Away
TTITLE5=Uncle John's Band
TTITLE6=Cryptical Envelopment
TTITLE7=Drums
TTITLE8=The Other One
TTITLE9=Cryptical Envelopment
TTITLE10=Cosmic Charlie
EXTD=
EXTT0=
EXTT1=
EXTT2=
EXTT3=
EXTT4=
EXTT5=
EXTT6=
EXTT7=
EXTT8=
EXTT9=
EXTT10=
PLAYORDER=
